<svg width="19" height="21" viewBox="0 0 19 21" fill="none" xmlns="http://www.w3.org/2000/svg">
<path fill-rule="evenodd" clip-rule="evenodd" d="M0 8.36086C0 7.1048 0.589995 5.92169 1.59325 5.16593L7.64939 0.603807C8.71845 -0.201522 10.1917 -0.201243 11.2604 0.604491L17.3109 5.1659C18.3134 5.92171 18.9029 7.10439 18.9029 8.35991V17.275C18.9029 18.9318 17.5597 20.275 15.9029 20.275H3C1.34315 20.275 0 18.9318 0 17.275V8.36086ZM7.92386 12.7848C7.59317 12.5354 7.12289 12.6013 6.87345 12.9319C6.62401 13.2626 6.68988 13.7329 7.02056 13.9823C7.71853 14.5088 8.60084 14.7521 9.45135 14.7521C10.3019 14.7521 11.1842 14.5088 11.8821 13.9823C12.2128 13.7329 12.2787 13.2626 12.0293 12.9319C11.7798 12.6013 11.3095 12.5354 10.9788 12.7848C10.5835 13.083 10.0333 13.2521 9.45135 13.2521C8.86938 13.2521 8.31921 13.083 7.92386 12.7848Z" fill="black"/>
</svg>
