<svg width="20" height="21" viewBox="0 0 20 21" fill="none" xmlns="http://www.w3.org/2000/svg">
<path fill-rule="evenodd" clip-rule="evenodd" d="M1.43713 9.24963C1.43713 4.55521 5.24271 0.749634 9.93713 0.749634C14.6316 0.749634 18.4371 4.55521 18.4371 9.24963V10.2496V15.4996H19.0001C19.5524 15.4996 20.0001 15.9473 20.0001 16.4996C20.0001 17.0519 19.5524 17.4996 19.0001 17.4996H1.00012C0.447837 17.4996 0.00012207 17.0519 0.00012207 16.4996C0.00012207 15.9473 0.447837 15.4996 1.00012 15.4996H1.43713V10.2496V9.24963ZM16.4371 10.2496V15.4996H3.43713V10.2496V9.24963C3.43713 5.65978 6.34728 2.74963 9.93713 2.74963C13.527 2.74963 16.4371 5.65978 16.4371 9.24963V10.2496ZM6.00012 18.9996C5.44784 18.9996 5.00012 19.4473 5.00012 19.9996C5.00012 20.5519 5.44784 20.9996 6.00012 20.9996H6.00481H6.00951H6.01423H6.01896H6.02371H6.02848H6.03326H6.03805H6.04287H6.0477H6.05254H6.0574H6.06227H6.06717H6.07207H6.07699H6.08193H6.08688H6.09185H6.09684H6.10184H6.10685H6.11188H6.11693H6.12199H6.12706H6.13216H6.13726H6.14239H6.14752H6.15268H6.15784H6.16303H6.16823H6.17344H6.17867H6.18391H6.18917H6.19444H6.19973H6.20504H6.21036H6.21569H6.22104H6.2264H6.23178H6.23718H6.24259H6.24801H6.25345H6.2589H6.26437H6.26985H6.27535H6.28086H6.28639H6.29193H6.29749H6.30306H6.30864H6.31424H6.31986H6.32549H6.33113H6.33679H6.34246H6.34815H6.35385H6.35957H6.3653H6.37104H6.3768H6.38258H6.38836H6.39417H6.39998H6.40581H6.41166H6.41752H6.42339H6.42928H6.43518H6.4411H6.44703H6.45297H6.45893H6.4649H6.47089H6.47689H6.4829H6.48893H6.49497H6.50103H6.5071H6.51318H6.51928H6.52539H6.53152H6.53766H6.54381H6.54998H6.55616H6.56235H6.56856H6.57478H6.58102H6.58727H6.59353H6.59981H6.60609H6.6124H6.61871H6.62504H6.63139H6.63775H6.64412H6.6505H6.6569H6.66331H6.66973H6.67617H6.68262H6.68908H6.69556H6.70205H6.70855H6.71507H6.7216H6.72814H6.7347H6.74127H6.74785H6.75445H6.76106H6.76768H6.77431H6.78096H6.78762H6.79429H6.80098H6.80768H6.81439H6.82112H6.82786H6.83461H6.84137H6.84815H6.85493H6.86174H6.86855H6.87538H6.88222H6.88907H6.89594H6.90281H6.9097H6.91661H6.92352H6.93045H6.93739H6.94434H6.95131H6.95828H6.96527H6.97228H6.97929H6.98632H6.99336H7.00041H7.00747H7.01455H7.02164H7.02874H7.03585H7.04298H7.05011H7.05726H7.06443H7.0716H7.07878H7.08598H7.09319H7.10041H7.10765H7.11489H7.12215H7.12942H7.1367H7.144H7.1513H7.15862H7.16595H7.17329H7.18064H7.188H7.19538H7.20277H7.21017H7.21758H7.225H7.23243H7.23988H7.24734H7.2548H7.26228H7.26978H7.27728H7.28479H7.29232H7.29986H7.30741H7.31497H7.32254H7.33012H7.33772H7.34532H7.35294H7.36057H7.36821H7.37586H7.38352H7.39119H7.39888H7.40657H7.41428H7.422H7.42973H7.43747H7.44522H7.45298H7.46075H7.46853H7.47633H7.48414H7.49195H7.49978H7.50762H7.51547H7.52333H7.5312H7.53908H7.54697H7.55487H7.56279H7.57071H7.57864H7.58659H7.59455H7.60251H7.61049H7.61848H7.62648H7.63448H7.6425H7.65053H7.65857H7.66662H7.67469H7.68276H7.69084H7.69893H7.70703H7.71515H7.72327H7.7314H7.73955H7.7477H7.75586H7.76404H7.77222H7.78042H7.78862H7.79683H7.80506H7.81329H7.82154H7.82979H7.83806H7.84633H7.85462H7.86291H7.87122H7.87953H7.88785H7.89619H7.90453H7.91288H7.92125H7.92962H7.938H7.9464H7.9548H7.96321H7.97163H7.98006H7.9885H7.99695H8.00541H8.01388H8.02236H8.03085H8.03934H8.04785H8.05637H8.06489H8.07343H8.08197H8.09053H8.09909H8.10766H8.11625H8.12484H8.13344H8.14205H8.15067H8.15929H8.16793H8.17658H8.18523H8.1939H8.20257H8.21125H8.21994H8.22864H8.23735H8.24607H8.2548H8.26353H8.27228H8.28103H8.2898H8.29857H8.30735H8.31614H8.32493H8.33374H8.34256H8.35138H8.36021H8.36905H8.3779H8.38676H8.39563H8.40451H8.41339H8.42228H8.43119H8.4401H8.44901H8.45794H8.46688H8.47582H8.48477H8.49373H8.5027H8.51168H8.52066H8.52966H8.53866H8.54767H8.55669H8.56571H8.57475H8.58379H8.59284H8.6019H8.61097H8.62004H8.62912H8.63822H8.64732H8.65642H8.66554H8.67466H8.68379H8.69293H8.70208H8.71123H8.72039H8.72956H8.73874H8.74793H8.75712H8.76632H8.77553H8.78475H8.79397H8.8032H8.81244H8.82169H8.83094H8.8402H8.84947H8.85875H8.86804H8.87733H8.88663H8.89593H8.90525H8.91457H8.9239H8.93323H8.94258H8.95193H8.96129H8.97065H8.98003H8.9894H8.99879H9.00819H9.01759H9.027H9.03641H9.04583H9.05526H9.0647H9.07414H9.08359H9.09305H9.10252H9.11199H9.12147H9.13095H9.14044H9.14994H9.15945H9.16896H9.17848H9.18801H9.19754H9.20708H9.21663H9.22618H9.23574H9.24531H9.25488H9.26446H9.27404H9.28364H9.29323H9.30284H9.31245H9.32207H9.3317H9.34133H9.35096H9.36061H9.37026H9.37992H9.38958H9.39925H9.40892H9.41861H9.42829H9.43799H9.44769H9.4574H9.46711H9.47683H9.48655H9.49628H9.50602H9.51576H9.52551H9.53527H9.54503H9.5548H9.56457H9.57435H9.58413H9.59392H9.60372H9.61352H9.62333H9.63314H9.64296H9.65279H9.66262H9.67246H9.6823H9.69215H9.702H9.71186H9.72173H9.7316H9.74147H9.75135H9.76124H9.77113H9.78103H9.79093H9.80084H9.81076H9.82068H9.8306H9.84053H9.85047H9.86041H9.87035H9.88031H9.89026H9.90022H9.91019H9.92016H9.93014H9.94012H9.95011H9.9601H9.9701H9.9801H9.99011H10.0001H10.0101H10.0201H10.0301H10.0401H10.0501H10.0601H10.0701H10.0801H10.0901H10.1H10.11H10.1199H10.1299H10.1398H10.1498H10.1597H10.1696H10.1796H10.1895H10.1994H10.2093H10.2192H10.2291H10.239H10.2489H10.2588H10.2686H10.2785H10.2884H10.2982H10.3081H10.3179H10.3278H10.3376H10.3475H10.3573H10.3671H10.3769H10.3867H10.3965H10.4063H10.4161H10.4259H10.4357H10.4454H10.4552H10.465H10.4747H10.4845H10.4942H10.504H10.5137H10.5234H10.5331H10.5428H10.5526H10.5623H10.5719H10.5816H10.5913H10.601H10.6107H10.6203H10.63H10.6396H10.6493H10.6589H10.6685H10.6782H10.6878H10.6974H10.707H10.7166H10.7262H10.7358H10.7454H10.7549H10.7645H10.7741H10.7836H10.7932H10.8027H10.8122H10.8218H10.8313H10.8408H10.8503H10.8598H10.8693H10.8788H10.8883H10.8977H10.9072H10.9166H10.9261H10.9355H10.945H10.9544H10.9638H10.9732H10.9827H10.9921H11.0015H11.0108H11.0202H11.0296H11.039H11.0483H11.0577H11.067H11.0763H11.0857H11.095H11.1043H11.1136H11.1229H11.1322H11.1415H11.1508H11.16H11.1693H11.1786H11.1878H11.197H11.2063H11.2155H11.2247H11.2339H11.2431H11.2523H11.2615H11.2707H11.2799H11.289H11.2982H11.3073H11.3165H11.3256H11.3347H11.3438H11.3529H11.362H11.3711H11.3802H11.3893H11.3983H11.4074H11.4165H11.4255H11.4345H11.4436H11.4526H11.4616H11.4706H11.4796H11.4886H11.4975H11.5065H11.5155H11.5244H11.5334H11.5423H11.5512H11.5601H11.5691H11.578H11.5869H11.5957H11.6046H11.6135H11.6223H11.6312H11.64H11.6489H11.6577H11.6665H11.6753H11.6841H11.6929H11.7017H11.7104H11.7192H11.728H11.7367H11.7454H11.7542H11.7629H11.7716H11.7803H11.789H11.7977H11.8063H11.815H11.8237H11.8323H11.841H11.8496H11.8582H11.8668H11.8754H11.884H11.8926H11.9012H11.9097H11.9183H11.9268H11.9354H11.9439H11.9524H11.9609H11.9694H11.9779H11.9864H11.9948H12.0033H12.0117H12.0202H12.0286H12.037H12.0454H12.0538H12.0622H12.0706H12.079H12.0874H12.0957H12.1041H12.1124H12.1207H12.129H12.1373H12.1456H12.1539H12.1622H12.1705H12.1787H12.187H12.1952H12.2034H12.2116H12.2198H12.228H12.2362H12.2444H12.2525H12.2607H12.2688H12.277H12.2851H12.2932H12.3013H12.3094H12.3175H12.3256H12.3336H12.3417H12.3497H12.3577H12.3658H12.3738H12.3818H12.3898H12.3977H12.4057H12.4137H12.4216H12.4295H12.4375H12.4454H12.4533H12.4612H12.469H12.4769H12.4848H12.4926H12.5005H12.5083H12.5161H12.5239H12.5317H12.5395H12.5473H12.555H12.5628H12.5705H12.5782H12.586H12.5937H12.6014H12.609H12.6167H12.6244H12.632H12.6397H12.6473H12.6549H12.6625H12.6701H12.6777H12.6853H12.6928H12.7004H12.7079H12.7154H12.723H12.7305H12.738H12.7454H12.7529H12.7604H12.7678H12.7752H12.7827H12.7901H12.7975H12.8049H12.8122H12.8196H12.827H12.8343H12.8416H12.8489H12.8562H12.8635H12.8708H12.8781H12.8854H12.8926H12.8998H12.9071H12.9143H12.9215H12.9286H12.9358H12.943H12.9501H12.9573H12.9644H12.9715H12.9786H12.9857H12.9928H12.9998H13.0069H13.0139H13.021H13.028H13.035H13.042H13.0489H13.0559H13.0629H13.0698H13.0767H13.0836H13.0905H13.0974H13.1043H13.1112H13.118H13.1249H13.1317H13.1385H13.1453H13.1521H13.1589H13.1656H13.1724H13.1791H13.1859H13.1926H13.1993H13.2059H13.2126H13.2193H13.2259H13.2326H13.2392H13.2458H13.2524H13.259H13.2655H13.2721H13.2786H13.2852H13.2917H13.2982H13.3047H13.3112H13.3176H13.3241H13.3305H13.3369H13.3433H13.3497H13.3561H13.3625H13.3689H13.3752H13.3815H13.3878H13.3941H13.4004H13.4067H13.413H13.4192H13.4255H13.4317H13.4379H13.4441H13.4503H13.4564H13.4626H13.4687H13.4748H13.481H13.4871H13.4931H13.4992H13.5053H13.5113H13.5173H13.5234H13.5294H13.5353H13.5413H13.5473H13.5532H13.5591H13.5651H13.571H13.5769H13.5827H13.5886H13.5944H13.6003H13.6061H13.6119H13.6177H13.6234H13.6292H13.6349H13.6407H13.6464H13.6521H13.6578H13.6635H13.6691H13.6748H13.6804H13.686H13.6916H13.6972H13.7028H13.7083H13.7139H13.7194H13.7249H13.7304H13.7359H13.7413H13.7468H13.7522H13.7577H13.7631H13.7685H13.7738H13.7792H13.7846H13.7899H13.7952H13.8005H13.8058H13.8111H13.8163H13.8216H13.8268H13.832H13.8372H13.8424H13.8476H13.8527H13.8579H13.863H13.8681H13.8732H13.8783H13.8833H13.8884H13.8934H13.8984H13.9034H13.9084H13.9134H13.9183H13.9233H13.9282H13.9331H13.938H13.9428H13.9477H13.9525H13.9574H13.9622H13.967H13.9718H13.9765H13.9813H13.986H13.9907H13.9954H14.0001C14.5524 20.9996 15.0001 20.5519 15.0001 19.9996C15.0001 19.4473 14.5524 18.9996 14.0001 18.9996H13.9954H13.9907H13.986H13.9813H13.9765H13.9718H13.967H13.9622H13.9574H13.9525H13.9477H13.9428H13.938H13.9331H13.9282H13.9233H13.9183H13.9134H13.9084H13.9034H13.8984H13.8934H13.8884H13.8833H13.8783H13.8732H13.8681H13.863H13.8579H13.8527H13.8476H13.8424H13.8372H13.832H13.8268H13.8216H13.8163H13.8111H13.8058H13.8005H13.7952H13.7899H13.7846H13.7792H13.7738H13.7685H13.7631H13.7577H13.7522H13.7468H13.7413H13.7359H13.7304H13.7249H13.7194H13.7139H13.7083H13.7028H13.6972H13.6916H13.686H13.6804H13.6748H13.6691H13.6635H13.6578H13.6521H13.6464H13.6407H13.6349H13.6292H13.6234H13.6177H13.6119H13.6061H13.6003H13.5944H13.5886H13.5827H13.5769H13.571H13.5651H13.5591H13.5532H13.5473H13.5413H13.5353H13.5294H13.5234H13.5173H13.5113H13.5053H13.4992H13.4931H13.4871H13.481H13.4748H13.4687H13.4626H13.4564H13.4503H13.4441H13.4379H13.4317H13.4255H13.4192H13.413H13.4067H13.4004H13.3941H13.3878H13.3815H13.3752H13.3689H13.3625H13.3561H13.3497H13.3433H13.3369H13.3305H13.3241H13.3176H13.3112H13.3047H13.2982H13.2917H13.2852H13.2786H13.2721H13.2655H13.259H13.2524H13.2458H13.2392H13.2326H13.2259H13.2193H13.2126H13.2059H13.1993H13.1926H13.1859H13.1791H13.1724H13.1656H13.1589H13.1521H13.1453H13.1385H13.1317H13.1249H13.118H13.1112H13.1043H13.0974H13.0905H13.0836H13.0767H13.0698H13.0629H13.0559H13.0489H13.042H13.035H13.028H13.021H13.0139H13.0069H12.9998H12.9928H12.9857H12.9786H12.9715H12.9644H12.9573H12.9501H12.943H12.9358H12.9286H12.9215H12.9143H12.9071H12.8998H12.8926H12.8854H12.8781H12.8708H12.8635H12.8562H12.8489H12.8416H12.8343H12.827H12.8196H12.8122H12.8049H12.7975H12.7901H12.7827H12.7752H12.7678H12.7604H12.7529H12.7454H12.738H12.7305H12.723H12.7154H12.7079H12.7004H12.6928H12.6853H12.6777H12.6701H12.6625H12.6549H12.6473H12.6397H12.632H12.6244H12.6167H12.609H12.6014H12.5937H12.586H12.5782H12.5705H12.5628H12.555H12.5473H12.5395H12.5317H12.5239H12.5161H12.5083H12.5005H12.4926H12.4848H12.4769H12.469H12.4612H12.4533H12.4454H12.4375H12.4295H12.4216H12.4137H12.4057H12.3977H12.3898H12.3818H12.3738H12.3658H12.3577H12.3497H12.3417H12.3336H12.3256H12.3175H12.3094H12.3013H12.2932H12.2851H12.277H12.2688H12.2607H12.2525H12.2444H12.2362H12.228H12.2198H12.2116H12.2034H12.1952H12.187H12.1787H12.1705H12.1622H12.1539H12.1456H12.1373H12.129H12.1207H12.1124H12.1041H12.0957H12.0874H12.079H12.0706H12.0622H12.0538H12.0454H12.037H12.0286H12.0202H12.0117H12.0033H11.9948H11.9864H11.9779H11.9694H11.9609H11.9524H11.9439H11.9354H11.9268H11.9183H11.9097H11.9012H11.8926H11.884H11.8754H11.8668H11.8582H11.8496H11.841H11.8323H11.8237H11.815H11.8063H11.7977H11.789H11.7803H11.7716H11.7629H11.7542H11.7454H11.7367H11.728H11.7192H11.7104H11.7017H11.6929H11.6841H11.6753H11.6665H11.6577H11.6489H11.64H11.6312H11.6223H11.6135H11.6046H11.5957H11.5869H11.578H11.5691H11.5601H11.5512H11.5423H11.5334H11.5244H11.5155H11.5065H11.4975H11.4886H11.4796H11.4706H11.4616H11.4526H11.4436H11.4345H11.4255H11.4165H11.4074H11.3983H11.3893H11.3802H11.3711H11.362H11.3529H11.3438H11.3347H11.3256H11.3165H11.3073H11.2982H11.289H11.2799H11.2707H11.2615H11.2523H11.2431H11.2339H11.2247H11.2155H11.2063H11.197H11.1878H11.1786H11.1693H11.16H11.1508H11.1415H11.1322H11.1229H11.1136H11.1043H11.095H11.0857H11.0763H11.067H11.0577H11.0483H11.039H11.0296H11.0202H11.0108H11.0015H10.9921H10.9827H10.9732H10.9638H10.9544H10.945H10.9355H10.9261H10.9166H10.9072H10.8977H10.8883H10.8788H10.8693H10.8598H10.8503H10.8408H10.8313H10.8218H10.8122H10.8027H10.7932H10.7836H10.7741H10.7645H10.7549H10.7454H10.7358H10.7262H10.7166H10.707H10.6974H10.6878H10.6782H10.6685H10.6589H10.6493H10.6396H10.63H10.6203H10.6107H10.601H10.5913H10.5816H10.5719H10.5623H10.5526H10.5428H10.5331H10.5234H10.5137H10.504H10.4942H10.4845H10.4747H10.465H10.4552H10.4454H10.4357H10.4259H10.4161H10.4063H10.3965H10.3867H10.3769H10.3671H10.3573H10.3475H10.3376H10.3278H10.3179H10.3081H10.2982H10.2884H10.2785H10.2686H10.2588H10.2489H10.239H10.2291H10.2192H10.2093H10.1994H10.1895H10.1796H10.1696H10.1597H10.1498H10.1398H10.1299H10.1199H10.11H10.1H10.0901H10.0801H10.0701H10.0601H10.0501H10.0401H10.0301H10.0201H10.0101H10.0001H9.99011H9.9801H9.9701H9.9601H9.95011H9.94012H9.93014H9.92016H9.91019H9.90022H9.89026H9.88031H9.87035H9.86041H9.85047H9.84053H9.8306H9.82068H9.81076H9.80084H9.79093H9.78103H9.77113H9.76124H9.75135H9.74147H9.7316H9.72173H9.71186H9.702H9.69215H9.6823H9.67246H9.66262H9.65279H9.64296H9.63314H9.62333H9.61352H9.60372H9.59392H9.58413H9.57435H9.56457H9.5548H9.54503H9.53527H9.52551H9.51576H9.50602H9.49628H9.48655H9.47683H9.46711H9.4574H9.44769H9.43799H9.42829H9.41861H9.40892H9.39925H9.38958H9.37992H9.37026H9.36061H9.35096H9.34133H9.3317H9.32207H9.31245H9.30284H9.29323H9.28364H9.27404H9.26446H9.25488H9.24531H9.23574H9.22618H9.21663H9.20708H9.19754H9.18801H9.17848H9.16896H9.15945H9.14994H9.14044H9.13095H9.12147H9.11199H9.10252H9.09305H9.08359H9.07414H9.0647H9.05526H9.04583H9.03641H9.027H9.01759H9.00819H8.99879H8.9894H8.98003H8.97065H8.96129H8.95193H8.94258H8.93323H8.9239H8.91457H8.90525H8.89593H8.88663H8.87733H8.86804H8.85875H8.84947H8.8402H8.83094H8.82169H8.81244H8.8032H8.79397H8.78475H8.77553H8.76632H8.75712H8.74793H8.73874H8.72956H8.72039H8.71123H8.70208H8.69293H8.68379H8.67466H8.66554H8.65642H8.64732H8.63822H8.62912H8.62004H8.61097H8.6019H8.59284H8.58379H8.57475H8.56571H8.55669H8.54767H8.53866H8.52966H8.52066H8.51168H8.5027H8.49373H8.48477H8.47582H8.46688H8.45794H8.44901H8.4401H8.43119H8.42228H8.41339H8.40451H8.39563H8.38676H8.3779H8.36905H8.36021H8.35138H8.34256H8.33374H8.32493H8.31614H8.30735H8.29857H8.2898H8.28103H8.27228H8.26353H8.2548H8.24607H8.23735H8.22864H8.21994H8.21125H8.20257H8.1939H8.18523H8.17658H8.16793H8.15929H8.15067H8.14205H8.13344H8.12484H8.11625H8.10766H8.09909H8.09053H8.08197H8.07343H8.06489H8.05637H8.04785H8.03934H8.03085H8.02236H8.01388H8.00541H7.99695H7.9885H7.98006H7.97163H7.96321H7.9548H7.9464H7.938H7.92962H7.92125H7.91288H7.90453H7.89619H7.88785H7.87953H7.87122H7.86291H7.85462H7.84633H7.83806H7.82979H7.82154H7.81329H7.80506H7.79683H7.78862H7.78042H7.77222H7.76404H7.75586H7.7477H7.73955H7.7314H7.72327H7.71515H7.70703H7.69893H7.69084H7.68276H7.67469H7.66662H7.65857H7.65053H7.6425H7.63448H7.62648H7.61848H7.61049H7.60251H7.59455H7.58659H7.57864H7.57071H7.56279H7.55487H7.54697H7.53908H7.5312H7.52333H7.51547H7.50762H7.49978H7.49195H7.48414H7.47633H7.46853H7.46075H7.45298H7.44522H7.43747H7.42973H7.422H7.41428H7.40657H7.39888H7.39119H7.38352H7.37586H7.36821H7.36057H7.35294H7.34532H7.33772H7.33012H7.32254H7.31497H7.30741H7.29986H7.29232H7.28479H7.27728H7.26978H7.26228H7.2548H7.24734H7.23988H7.23243H7.225H7.21758H7.21017H7.20277H7.19538H7.188H7.18064H7.17329H7.16595H7.15862H7.1513H7.144H7.1367H7.12942H7.12215H7.11489H7.10765H7.10041H7.09319H7.08598H7.07878H7.0716H7.06443H7.05726H7.05011H7.04298H7.03585H7.02874H7.02164H7.01455H7.00747H7.00041H6.99336H6.98632H6.97929H6.97228H6.96527H6.95828H6.95131H6.94434H6.93739H6.93045H6.92352H6.91661H6.9097H6.90281H6.89594H6.88907H6.88222H6.87538H6.86855H6.86174H6.85493H6.84815H6.84137H6.83461H6.82786H6.82112H6.81439H6.80768H6.80098H6.79429H6.78762H6.78096H6.77431H6.76768H6.76106H6.75445H6.74785H6.74127H6.7347H6.72814H6.7216H6.71507H6.70855H6.70205H6.69556H6.68908H6.68262H6.67617H6.66973H6.66331H6.6569H6.6505H6.64412H6.63775H6.63139H6.62504H6.61871H6.6124H6.60609H6.59981H6.59353H6.58727H6.58102H6.57478H6.56856H6.56235H6.55616H6.54998H6.54381H6.53766H6.53152H6.52539H6.51928H6.51318H6.5071H6.50103H6.49497H6.48893H6.4829H6.47689H6.47089H6.4649H6.45893H6.45297H6.44703H6.4411H6.43518H6.42928H6.42339H6.41752H6.41166H6.40581H6.39998H6.39417H6.38836H6.38258H6.3768H6.37104H6.3653H6.35957H6.35385H6.34815H6.34246H6.33679H6.33113H6.32549H6.31986H6.31424H6.30864H6.30306H6.29749H6.29193H6.28639H6.28086H6.27535H6.26985H6.26437H6.2589H6.25345H6.24801H6.24259H6.23718H6.23178H6.2264H6.22104H6.21569H6.21036H6.20504H6.19973H6.19444H6.18917H6.18391H6.17867H6.17344H6.16823H6.16303H6.15784H6.15268H6.14752H6.14239H6.13726H6.13216H6.12706H6.12199H6.11693H6.11188H6.10685H6.10184H6.09684H6.09185H6.08688H6.08193H6.07699H6.07207H6.06717H6.06227H6.0574H6.05254H6.0477H6.04287H6.03805H6.03326H6.02848H6.02371H6.01896H6.01423H6.00951H6.00481H6.00012Z" fill="black"/>
</svg>
